<svg xmlns="http://www.w3.org/2000/svg" viewBox="0 0 256 64" fill="none">
  <path d="M35.4 38.4L42 0H31.2l-6.6 38.4h10.8z" fill="#3395FF"/>
  <path d="M18.6 38.4H7.8L0 64h10.8l7.8-25.6z" fill="#072654"/>
  <path d="M42 0L24.6 64h10.8L52.8 0H42z" fill="#072654"/>
  <path d="M68.4 51.2V12.8h12c4.4 0 7.8 1.1 10.2 3.3 2.4 2.2 3.6 5.3 3.6 9.1 0 2.6-.6 4.9-1.8 6.8-1.2 1.9-2.9 3.4-5.1 4.3l8.1 14.8H84.6l-7.2-13.6h-3v13.6h-6zm6-19.2h5.4c2 0 3.5-.5 4.5-1.4 1-.9 1.5-2.3 1.5-4 0-1.8-.5-3.1-1.5-4.1-1-1-2.5-1.4-4.5-1.4h-5.4V32z" fill="#072654"/>
  <path d="M110 51.2V12.8h5.5l12.6 25.2V12.8h5.6v38.4h-5.5l-12.6-25.2v25.2H110z" fill="#072654"/>
  <path d="M152.5 51.2V12.8h6v16l12-16h7.2l-12.6 16.4 13.2 22h-7.2l-10.2-17.2-2.4 3v14.2h-6z" fill="#072654"/>
  <path d="M195.2 51.8c-3.6 0-6.5-1.1-8.7-3.4-2.2-2.3-3.3-5.4-3.3-9.5V12.8h6v25.6c0 2.6.6 4.5 1.7 5.9 1.2 1.4 2.8 2.1 4.9 2.1 2.1 0 3.7-.7 4.9-2.1 1.2-1.4 1.7-3.3 1.7-5.9V12.8h6v26.1c0 4-.1.1 7.2-3.3 9.4-2.2 2.3-5.1 3.4-8.7 3.4z" fill="#072654"/>
  <path d="M231.2 51.8c-4 0-7.2-1.3-9.5-3.8-2.3-2.6-3.4-6-3.4-10.4 0-4.4 1.1-7.9 3.4-10.4 2.3-2.6 5.5-3.8 9.5-3.8 4 0 7.2 1.3 9.5 3.8 2.3 2.6 3.4 6 3.4 10.4 0 4.4-1.1 7.9-3.4 10.4-2.3 2.6-5.5 3.8-9.5 3.8zm0-5.4c2.1 0 3.7-.8 4.9-2.4 1.2-1.6 1.8-3.8 1.8-6.4 0-2.6-.6-4.8-1.8-6.4-1.2-1.6-2.8-2.4-4.9-2.4-2.1 0-3.7.8-4.9 2.4-1.2 1.6-1.8 3.8-1.8 6.4 0 2.6.6 4.8 1.8 6.4 1.2 1.6 2.8 2.4 4.9 2.4z" fill="#072654"/>
</svg>
